Coordinates
version=1
nRows=65
nColumns=12
inDegrees=yes

Units are S.I. units (second, meters, Newtons, ...)
Angles are in degrees

endheader
time	SC_y	SC_z	SC_x	AC_y	AC_z	AC_x	GH_y	GH_z	GH_yy	EL_x	PS_y
       0.0              -49.54          26.21          16.44          56.34         -15.78          1.061          67.61          78.06          138.5          15.92           13.8
   0.03266              -49.54          26.21          16.45          56.34         -15.78          1.059           67.6          78.06          138.5          15.93          13.81
   0.06531              -49.54          26.21          16.46          56.34         -15.78          1.056          67.58          78.06          138.5          15.95          13.82
   0.09797              -49.53          26.21          16.47          56.33         -15.78          1.053          67.56          78.05          138.5          15.96          13.83
    0.1306              -49.53           26.2          16.48          56.33         -15.78           1.05          67.54          78.05          138.5          15.98          13.85
    0.1633              -49.52           26.2          16.49          56.33         -15.78          1.047          67.52          78.05          138.5          15.99          13.86
    0.1959              -49.52           26.2           16.5          56.32         -15.78          1.043           67.5          78.05          138.5          16.01          13.88
    0.2286              -49.51           26.2          16.52          56.32         -15.78           1.04          67.48          78.04          138.5          16.03           13.9
    0.2613              -49.51           26.2          16.53          56.31         -15.78          1.036          67.46          78.04          138.5          16.05          13.92
    0.2939               -49.5           26.2          16.55          56.31         -15.78          1.032          67.43          78.04          138.5          16.07          13.94
    0.3266              -49.49           26.2          16.56           56.3         -15.78          1.027           67.4          78.03          138.5           16.1          13.96
    0.3592              -49.49           26.2          16.58           56.3         -15.78          1.022          67.37          78.03          138.5          16.12          13.98
    0.3919              -49.48           26.2           16.6          56.29         -15.79          1.017          67.34          78.02          138.5          16.15          14.01
    0.4245              -49.47           26.2          16.62          56.28         -15.79          1.011           67.3          78.02          138.5          16.18          14.03
    0.4572              -49.46           26.2          16.64          56.28         -15.79          1.005          67.27          78.02          138.5          16.21          14.06
    0.4898              -49.45           26.2          16.66          56.27         -15.79         0.9985          67.22          78.01          138.5          16.25          14.09
    0.5225              -49.44           26.2          16.69          56.26         -15.79         0.9913          67.18           78.0          138.5          16.28          14.13
    0.5552              -49.43           26.2          16.72          56.25         -15.79         0.9834          67.13           78.0          138.5          16.33          14.17
    0.5878              -49.42           26.2          16.75          56.24         -15.79         0.9748          67.08          77.99          138.5          16.37          14.21
    0.6205              -49.41           26.2          16.78          56.23          -15.8         0.9654          67.02          77.98          138.5          16.42          14.25
    0.6531              -49.39           26.2          16.82          56.22          -15.8         0.9551          66.96          77.97          138.5          16.47           14.3
    0.6858              -49.37           26.2          16.86          56.21          -15.8         0.9437          66.88          77.96          138.5          16.53          14.35
    0.7184              -49.36           26.2          16.91          56.19          -15.8         0.9311          66.81          77.95          138.5           16.6          14.41
    0.7511              -49.34           26.2          16.96          56.17         -15.81         0.9172          66.72          77.94          138.5          16.67          14.48
    0.7838              -49.31           26.2          17.01          56.16         -15.81         0.9017          66.62          77.93          138.5          16.75          14.55
    0.8164              -49.29           26.2          17.07          56.14         -15.81         0.8844          66.52          77.92          138.5          16.84          14.64
    0.8491              -49.26           26.2          17.14          56.11         -15.82         0.8651           66.4           77.9          138.5          16.94          14.73
    0.8817              -49.23           26.2          17.22          56.09         -15.82         0.8433          66.26          77.88          138.5          17.06          14.83
    0.9144               -49.2           26.2          17.31          56.06         -15.82         0.8187          66.11          77.86          138.5          17.19          14.95
     0.947              -49.16           26.2          17.41          56.03         -15.83         0.7908          65.94          77.84          138.5          17.33          15.08
    0.9797              -49.11           26.2          17.52          55.99         -15.84         0.7589          65.74          77.81          138.5           17.5          15.24
     1.012              -49.06           26.2          17.65          55.95         -15.84         0.7223          65.51          77.78          138.5          17.69          15.41
     1.045               -49.0           26.2          17.81           55.9         -15.85         0.6801          65.25          77.75          138.5          17.91          15.61
     1.078              -48.93           26.2          17.98          55.84         -15.86          0.631          64.95          77.71          138.5          18.17          15.85
      1.11              -48.84          26.19          18.19          55.77         -15.87         0.5735          64.59          77.66          138.5          18.46          16.12
     1.143              -48.75          26.19          18.43           55.7         -15.89         0.5058          64.17          77.61          138.5          18.82          16.44
     1.176              -48.63          26.19          18.72           55.6          -15.9         0.4254          63.68          77.54          138.5          19.24          16.83
     1.208              -48.49          26.19          19.06          55.49         -15.92         0.3289          63.08          77.46          138.5          19.74          17.29
     1.241              -48.33          26.19          19.48          55.35         -15.94         0.2123          62.36          77.37          138.6          20.35          17.84
     1.274              -48.12          26.18          19.99          55.19         -15.97        0.06975          61.47          77.25          138.6          21.09          18.52
     1.306              -47.87          26.18          20.62          54.98         -16.01        -0.1062          60.38          77.11          138.6          22.01          19.36
     1.339              -47.55          26.17          21.41          54.73         -16.05        -0.3255          59.03          76.93          138.6          23.16           20.4
     1.372              -47.16          26.17           22.4           54.4         -16.11        -0.6018          57.31           76.7          138.6           24.6          21.72
     1.404              -46.66          26.16          23.66           54.0         -16.18        -0.9531          55.14          76.41          138.7          26.43           23.4
     1.437              -46.01          26.15          25.27          53.47         -16.26         -1.403          52.36          76.05          138.7          28.78          25.54
      1.47              -45.18          26.14          27.34           52.8         -16.38          -1.98          48.78          75.57          138.8          31.79          28.29
     1.502              -44.13          26.12          29.98          51.94         -16.52         -2.717          44.22          74.97          138.9          35.63           31.8
     1.535               -42.8           26.1           33.3          50.86         -16.71         -3.643          38.48          74.21          139.0          40.47          36.22
     1.568              -41.18          26.08          37.34          49.54         -16.93         -4.773          31.49          73.29          139.1          46.36           41.6
       1.6               -39.3          26.05          42.04          48.02         -17.19         -6.082          23.38          72.22          139.2           53.2          47.84
     1.633              -37.27          26.01          47.11          46.37         -17.47         -7.499           14.6          71.06          139.4          60.59           54.6
     1.665              -35.24          25.98          52.19          44.72         -17.75         -8.917          5.827           69.9          139.5          67.99          61.36
     1.698              -33.36          25.95          56.88          43.19         -18.01         -10.23         -2.279          68.83          139.7          74.82           67.6
     1.731              -31.74          25.93          60.93          41.87         -18.24         -11.35         -9.272           67.9          139.8          80.71          72.98
     1.763              -30.42          25.91          64.25          40.79         -18.42         -12.28         -15.01          67.15          139.9          85.55           77.4
     1.796              -29.36          25.89          66.89          39.94         -18.57         -13.02         -19.57          66.54          140.0          89.39          80.91
     1.829              -28.53          25.88          68.96          39.26         -18.68          -13.6         -23.15          66.07          140.0          92.41          83.66
     1.861              -27.89          25.87          70.57          38.74         -18.77         -14.05         -25.93           65.7          140.1          94.75           85.8
     1.894              -27.38          25.86          71.83          38.33         -18.84          -14.4         -28.11          65.42          140.1          96.58          87.48
     1.927              -26.99          25.85          72.82          38.01         -18.89         -14.67         -29.82          65.19          140.2          98.03           88.8
     1.959              -26.67          25.85          73.61          37.75         -18.94         -14.89         -31.18          65.01          140.2          99.17          89.84
     1.992              -26.42          25.85          74.24          37.55         -18.97         -15.07         -32.27          64.87          140.2          100.1          90.68
     2.025              -26.22          25.84          74.75          37.38          -19.0         -15.21         -33.15          64.75          140.2          100.8          91.36
     2.057              -26.05          25.84          75.17          37.25         -19.02         -15.33         -33.87          64.65          140.2          101.4          91.92
      2.09              -25.91          25.84          75.51          37.13         -19.04         -15.42         -34.47          64.58          140.2          101.9          92.38
